# xmcd
#
# Track frame offsets: 
#        150
#        18458
#        39380
#        54881
#        70713
#        87886
#        102614
#        123367
#        142331
#        162240
#        180214
#
# Disc length: 2684 seconds
#
# Revision: 0
# Processed by: cddbd v1.5.2PL0 Copyright (c) Steve Scherf et al.
# Submitted via: ExactAudioCopy v0.99pb5
#
DISCID=8c0a7a0b
DTITLE=Sven Zetterberg - Grounded In Reality
DYEAR=2010
DGENRE=Soul
TTITLE0=It Slipped Right Through My Hands
TTITLE1=A Memory From My Happier Years
TTITLE2=Your Love Is Contagious
TTITLE3=Slow Suicide
TTITLE4=Between So Long And Goodbye
TTITLE5=Your Heart Is Just A Frigidaire
TTITLE6=Heartaches And Strifes
TTITLE7=A Darker Side Of Me
TTITLE8=The World I Live In
TTITLE9=This Is Better
TTITLE10=A Risky Lifestyle
EXTD=
EXTT0=
EXTT1=
EXTT2=
EXTT3=
EXTT4=
EXTT5=
EXTT6=
EXTT7=
EXTT8=
EXTT9=
EXTT10=
PLAYORDER=
